#!OML:ASF F:\VICON\USERDATA\INSTALL\rory3\rory3.ASF
:FULLY-SPECIFIED
:DEGREES
28
root 0.3151671926869968 17.858365029418827 8.875058893305969 -1.0462986176187372 -1.9414259424137048 -5.8401624019470235
lfemur -16.416821417217104 -8.184334548435633 -14.142641992981781
ltibia 14.106177590645927
lfoot 17.473603367385557 -16.494665458326168
ltoes -7.090034452431892
rfemur 1.1683345083096057 4.260176618980501 33.02498687841019
rtibia 25.75538852354486
rfoot -6.386357098397523 -4.903053518524914
rtoes 2.032157415125283
lowerback 1.0 0.9092853963541252 3.7798746641129695
upperback -0.1828152219486737 2.3091118180401544 2.028854984255197
thorax -4.044255331308263 0.9817546953830913 -0.5189531509305294
lowerneck -16.675350614741276 -2.5082415624479513 -1.1479211605412933
upperneck 22.974957890071124 -3.3357937312652317 -0.8354613287133001
head 10.054882841463222 -1.6526208123428379 -0.491914521632808
lclavicle 5.748360084412231e-14 1.8327694734835316e-14
lhumerus -33.123572395255586 9.402536523881558 79.5960454948671
lradius 18.185953247738524
lwrist 0.9241145484210178
lhand -29.21413017240851 19.879695402786982
lfingers nan
lthumb -2.5693674808283733 49.78101666349817
rclavicle 5.697700032076112e-14 1.8812943692671906e-14
rhumerus -28.02062643507241 -25.96024970690431 -73.24931754175842
rradius 26.81978926839328
rwrist 5.604493132213994
rhand -20.997542681459382 1.0
rfingers nan
rthumb 5.366316031602159 -6.4323013962333375
29
root 0.3754167072359361 17.909836880515833 8.462330373205265 -1.57217444727366 -2.365473042416978 -5.379486306629889
lfemur -16.607055161461975 -7.9054356335722895 -15.676638923816633
ltibia 17.630837541375648
lfoot 19.47782885651086 -19.27094318411528
ltoes -8.678591868113571
rfemur 2.5744804721552033 3.507898437790966 30.95218362003088
rtibia 28.949198966774265
rfoot -2.1923710764711792 -2.429861881941696
rtoes -0.6278396117686285
lowerback 1.0 1.0871957891304367 3.2126252048190476
upperback -0.02528279184710633 2.6034834579869766 1.4705664170687482
thorax -3.6975570911870683 1.1622728220946543 -0.6749524474078195
lowerneck -17.24839826448734 -2.6191464723175844 -0.9250575220220966
upperneck 23.455940652266644 -3.646816273502425 -0.8321900915670873
head 10.375169891360933 -1.7358495026923433 -0.5591966238157464
lclavicle -5.4814874911164775e-15 1.2961499206953868e-14
lhumerus -33.76795554190092 10.194606590777184 78.9719764953291
lradius 17.80762681299419
lwrist 0.5193828042300894
lhand -28.41088450758777 20.374346616523404
lfingers nan
lthumb -1.8101096129620782 50.32298115550455
rclavicle -6.067174547060765e-15 1.3843104559026472e-14
rhumerus -28.664931190485596 -27.27323038117012 -72.8298233697043
rradius 26.59009240732997
rwrist 6.427025739098709
rhand -21.100711388450357 1.0
rfingers nan
rthumb 5.263443083425214 -6.511679538442947
30
root 0.44030055949872515 17.927818306431515 8.648995485722033 -2.3105040993043957 -1.9353530606686826 -4.076778239748821
lfemur -15.647107726188448 -7.897523738182485 -18.127062384412366
ltibia 18.36885914389456
lfoot 21.095192586754454 -20.75571939284487
ltoes -4.676579791217334
rfemur 0.9261852846121226 1.7505981181529844 27.220422964668952
rtibia 37.739852069784774
rfoot 5.19318709140016 0.08253539287059652
rtoes -0.02781425652901648
lowerback 1.0 0.9546117236631952 1.5119398770055135
upperback -0.24683753112023996 2.4051050552947655 0.8179566933069776
thorax -4.218097372210569 1.0768572933652631 -0.08180422383257469
lowerneck -16.983495361074358 -2.7450119461674407 -1.2435206557313374
upperneck 24.214942521316615 -3.8836567831504674 -0.6371338039706173
head 10.630248895175965 -1.8161774107814483 -0.4823606993439829
lclavicle -7.815626380327108e-15 1.632614451409435e-14
lhumerus -34.80503761251033 11.935616815802476 77.94731274253569
lradius 17.188486491375425
lwrist -1.488702090360809
lhand -26.074641665872694 20.363261382190622
lfingers nan
lthumb 0.4731865170810712 50.36746927533999
rclavicle -8.08752675767635e-15 1.753288121232374e-14
rhumerus -30.152302788043134 -29.041315836468055 -71.81980661630979
rradius 25.49090027081025
rwrist 7.788108069338042
rhand -20.574430206088355 1.0
rfingers nan
rthumb 5.769111840081804 -5.895430739047466
31
root 0.490299724104291 17.95161525031187 9.355148676349664 -2.9622802403652737 -1.8992441392477797 -4.260620725968922
lfemur -14.928597169075463 -5.9200558368505645 -18.920879992009354
ltibia 22.393068238116545
lfoot 19.084181427918494 -20.94529406157222
ltoes -6.118501475342621
rfemur -2.853070764291875 0.20301709932454415 25.419342406292415
rtibia 48.030883123339464
rfoot 16.57555762795556 2.9853896672493576
rtoes 7.3889245559189165
lowerback 1.0 0.7308756432329117 1.7849972629697337
upperback -0.22079005220261014 2.3834286639549003 0.771509970310427
thorax -4.377125150796877 1.0374757917407949 -0.2744951723831437
lowerneck -16.4543698035116 -2.7243667710225217 -1.2650647468774694
upperneck 24.28826054446562 -3.9210363562870194 -0.6198150987718055
head 10.541449883789037 -1.8327019535896605 -0.4726688072977343
lclavicle 3.747645793484604e-14 2.4320817344381783e-14
lhumerus -35.39100836637072 12.082882957457116 77.85672983787995
lradius 17.051194660616694
lwrist -0.23668905033710175
lhand -28.107953159236647 21.676796862478973
lfingers nan
lthumb -1.4008441375405898 51.72966388574793
rclavicle 3.6793101434355357e-14 2.5126170138494233e-14
rhumerus -32.11986993724283 -30.288514633240617 -70.76662043598301
rradius 25.09787765429926
rwrist 8.806403639172412
rhand -20.382929255390884 1.0
rfingers nan
rthumb 5.936747250934268 -6.306473354939854
32
root 0.557625350532416 17.974756721449978 10.378587383085213 -3.5368374281899366 -2.8006466293325123 -3.1533699217856377
lfemur -12.515463830466569 -5.4909676701283 -20.941453769865568
ltibia 22.684822647203063
lfoot 17.99481437608884 -18.744630941859388
ltoes -4.3720460530659615
rfemur -8.710267506775338 0.6203272625468421 22.355265703232213
rtibia 59.57307244971339
rfoot 24.634739686514468 3.2544766058310852
rtoes 22.218429425385466
lowerback 1.0 0.8865075545171055 0.35693786492180113
upperback 0.247336677245092 2.5334578507904997 0.28241434420533373
thorax -4.297482403059018 1.1680335382046374 0.14114903255619782
lowerneck -16.775436818424645 -2.465822250514454 -1.1431427427955345
upperneck 23.80389091389899 -3.532913890590839 -0.7044348003888109
head 10.400381512054105 -1.6934155877358803 -0.48509450825427014
lclavicle 1.895707982521362e-14 1.0033387394002677e-14
lhumerus -35.203481895252246 11.1443614053731 78.49164732877283
lradius 17.960152036561325
lwrist 1.0482297196071175
lhand -27.802717581939465 21.190943441449758
lfingers nan
lthumb -1.0446335972239364 51.26960731830329
rclavicle 1.873852310407442e-14 1.1578065676934531e-14
rhumerus -32.7469517149502 -30.592338681192977 -70.52905013065212
rradius 24.452250638383926
rwrist 9.133424159922319
rhand -19.958515119666984 1.0
rfingers nan
rthumb 6.310445681880431 -6.920776701348155
33
root 0.6034028105655609 18.011755005437557 10.861380453824392 -4.014123540061637 -2.9410252193489246 -2.1861733927507494
lfemur -9.66052620450385 -5.000925625927522 -22.555444342327164
ltibia 22.84624428858325
lfoot 16.467290951798756 -17.514578748436993
ltoes -5.335403155661693
rfemur -13.76171959485298 -0.44451956218744826 20.307415560830464
rtibia 69.14651732610695
rfoot 21.33882413527739 0.596610819781696
rtoes 19.862391907075924
lowerback 1.0 0.6361298534797102 -0.6214325786572206
upperback 0.5898497522973002 2.2279290371850524 0.03961072468521731
thorax -4.170676720002973 1.0258248643480317 0.5676762303970672
lowerneck -16.384671880193228 -2.2228920955315283 -1.2184086964120784
upperneck 23.424856057929805 -3.0256396143179347 -0.9175095754082838
head 10.164950415392127 -1.5507297440161028 -0.49211584005957837
lclavicle 1.656613096619685e-15 2.9206923042067283e-15
lhumerus -34.52799075822679 9.139840793057873 79.49773540166444
lradius 18.361216956423128
lwrist 3.064972005365979
lhand -29.204154676187137 19.72262670105645
lfingers nan
lthumb -2.353978778783161 49.77942906474819
rclavicle 1.6777200696610513e-15 4.396905595639086e-15
rhumerus -32.599343340091444 -31.480726900774375 -69.96893801662222
rradius 21.60467134456903
rwrist 11.816364798161901
rhand -19.490644658689856 1.0
rfingers nan
rthumb 6.768300984517211 -3.9820370350660697
